<svg width="980" height="560" viewBox="0 0 980 560" fill="none" xmlns="http://www.w3.org/2000/svg">
  <defs>
    <linearGradient id="screen" x1="270" y1="76" x2="706" y2="386" gradientUnits="userSpaceOnUse">
      <stop stop-color="#151B3D"/>
      <stop offset="1" stop-color="#27315F"/>
    </linearGradient>
    <linearGradient id="panel" x1="322" y1="106" x2="676" y2="324" gradientUnits="userSpaceOnUse">
      <stop stop-color="#FFFFFF"/>
      <stop offset="1" stop-color="#F7F6FF"/>
    </linearGradient>
    <linearGradient id="purple" x1="438" y1="166" x2="548" y2="276" gradientUnits="userSpaceOnUse">
      <stop stop-color="#6E55FF"/>
      <stop offset="1" stop-color="#2B166E"/>
    </linearGradient>
    <linearGradient id="purpleLight" x1="0" y1="0" x2="1" y2="1">
      <stop stop-color="#EEE9FF"/>
      <stop offset="1" stop-color="#FFFFFF"/>
    </linearGradient>
    <filter id="shadow" x="72" y="52" width="830" height="460" filterUnits="userSpaceOnUse" color-interpolation-filters="sRGB">
      <feDropShadow dx="0" dy="26" stdDeviation="24" flood-color="#332D78" flood-opacity="0.18"/>
    </filter>
  </defs>

  <ellipse cx="506" cy="234" rx="384" ry="208" fill="#F1EEFF"/>
  <ellipse cx="506" cy="234" rx="318" ry="164" fill="url(#purpleLight)" opacity="0.9"/>

  <g opacity="0.45">
    <circle cx="150" cy="218" r="3" fill="#B6A9FF"/>
    <circle cx="178" cy="218" r="3" fill="#B6A9FF"/>
    <circle cx="206" cy="218" r="3" fill="#B6A9FF"/>
    <circle cx="150" cy="246" r="3" fill="#B6A9FF"/>
    <circle cx="178" cy="246" r="3" fill="#B6A9FF"/>
    <circle cx="206" cy="246" r="3" fill="#B6A9FF"/>
    <circle cx="786" cy="154" r="3" fill="#B6A9FF"/>
    <circle cx="814" cy="154" r="3" fill="#B6A9FF"/>
    <circle cx="842" cy="154" r="3" fill="#B6A9FF"/>
    <circle cx="786" cy="182" r="3" fill="#B6A9FF"/>
    <circle cx="814" cy="182" r="3" fill="#B6A9FF"/>
    <circle cx="842" cy="182" r="3" fill="#B6A9FF"/>
  </g>

  <g filter="url(#shadow)">
    <path d="M272 91C276 53 307 29 345 34L701 78C738 83 762 116 756 153L712 373H229L272 91Z" fill="url(#screen)"/>
    <path d="M316 86C318 69 332 58 349 60L681 101C698 103 708 118 706 135L675 324H276L316 86Z" fill="url(#panel)"/>
    <path d="M206 373H735L820 439C832 448 825 467 810 467H139C124 467 118 448 130 439L206 373Z" fill="#E9ECF8"/>
    <path d="M244 389H705L750 423H198L244 389Z" fill="#D8DCEA"/>
    <path d="M394 411H542L568 431H366L394 411Z" fill="#C6CBDA"/>
    <path d="M139 457H810" stroke="#B8BED2" stroke-width="4" stroke-linecap="round"/>
  </g>

  <g transform="translate(315 104)">
    <text x="0" y="22" fill="#141A36" font-family="Inter, Segoe UI, Arial, sans-serif" font-size="22" font-weight="900">Bibliothèque</text>
    <rect x="0" y="48" width="84" height="22" rx="7" fill="#EEE9FF"/>
    <text x="13" y="63" fill="#5B3DFF" font-family="Inter, Segoe UI, Arial, sans-serif" font-size="10" font-weight="800">Toutes</text>
    <text x="8" y="92" fill="#6B738E" font-family="Inter, Segoe UI, Arial, sans-serif" font-size="10" font-weight="700">Ebooks</text>
    <text x="8" y="119" fill="#6B738E" font-family="Inter, Segoe UI, Arial, sans-serif" font-size="10" font-weight="700">Guides</text>
    <text x="8" y="146" fill="#6B738E" font-family="Inter, Segoe UI, Arial, sans-serif" font-size="10" font-weight="700">Tutoriels</text>
    <text x="8" y="173" fill="#6B738E" font-family="Inter, Segoe UI, Arial, sans-serif" font-size="10" font-weight="700">Livres blancs</text>

    <g transform="translate(120 50)">
      <rect width="84" height="128" rx="10" fill="#FFFFFF" stroke="#ECEFFA"/>
      <rect x="17" y="18" width="50" height="70" rx="4" fill="url(#purple)"/>
      <path d="M30 34H54M30 45H59M30 56H49" stroke="#A99AFF" stroke-width="3" stroke-linecap="round"/>
      <text x="18" y="107" fill="#1C2443" font-family="Inter, Segoe UI, Arial, sans-serif" font-size="8" font-weight="800">Python</text>
      <rect x="18" y="115" width="44" height="5" rx="2.5" fill="#DAD4FF"/>
    </g>

    <g transform="translate(224 50)">
      <rect width="84" height="128" rx="10" fill="#FFFFFF" stroke="#ECEFFA"/>
      <rect x="17" y="18" width="50" height="70" rx="4" fill="#6E55FF"/>
      <circle cx="42" cy="52" r="18" stroke="#CFC7FF" stroke-width="4"/>
      <path d="M33 53H51M42 44V62" stroke="#FFFFFF" stroke-width="4" stroke-linecap="round"/>
      <text x="18" y="107" fill="#1C2443" font-family="Inter, Segoe UI, Arial, sans-serif" font-size="8" font-weight="800">Data</text>
      <rect x="18" y="115" width="44" height="5" rx="2.5" fill="#DAD4FF"/>
    </g>

    <g transform="translate(328 50)">
      <rect width="84" height="128" rx="10" fill="#FFFFFF" stroke="#ECEFFA"/>
      <rect x="17" y="18" width="50" height="70" rx="4" fill="#211052"/>
      <path d="M30 64L42 36L55 64H30Z" stroke="#8A74FF" stroke-width="4" stroke-linejoin="round"/>
      <text x="18" y="107" fill="#1C2443" font-family="Inter, Segoe UI, Arial, sans-serif" font-size="8" font-weight="800">IA</text>
      <rect x="18" y="115" width="44" height="5" rx="2.5" fill="#DAD4FF"/>
    </g>

    <path d="M436 22H446M441 17V27" stroke="#B8AEFF" stroke-width="3" stroke-linecap="round"/>
    <path d="M470 18L480 26L470 34" stroke="#B8AEFF" stroke-width="3" stroke-linecap="round" stroke-linejoin="round"/>
  </g>

  <g transform="translate(730 250)">
    <path d="M17 82H168C178 82 186 90 186 100V107H0V99C0 90 8 82 17 82Z" fill="#1B2856"/>
    <path d="M13 53H154C164 53 172 61 172 71V82H0V66C0 59 6 53 13 53Z" fill="#E8E4FF"/>
    <path d="M28 24H178C188 24 196 32 196 42V53H17V35C17 29 22 24 28 24Z" fill="#7967D9"/>
    <path d="M48 0H188C198 0 206 8 206 18V24H37V11C37 5 42 0 48 0Z" fill="#C9C2FF"/>
    <rect x="20" y="82" width="148" height="9" fill="#111B42" opacity="0.35"/>
    <rect x="34" y="53" width="118" height="8" fill="#FFFFFF" opacity="0.75"/>
    <rect x="55" y="24" width="128" height="8" fill="#FFFFFF" opacity="0.35"/>
  </g>

  <g transform="translate(793 353)">
    <path d="M19 18H91V68C91 88 75 104 55 104C35 104 19 88 19 68V18Z" fill="#FFFFFF" stroke="#DADFF0" stroke-width="4"/>
    <path d="M91 36H103C119 36 128 48 124 62C121 76 109 84 91 82" stroke="#DADFF0" stroke-width="8" stroke-linecap="round"/>
    <ellipse cx="55" cy="18" rx="36" ry="10" fill="#F2F4FB" stroke="#DADFF0" stroke-width="4"/>
  </g>
</svg>
